<svg id="Services" xmlns="http://www.w3.org/2000/svg" width="216" height="227" viewBox="0 0 216 227">
  <defs>
    <style>
      .cls-1 {
        fill: #130e27;
        fill-rule: evenodd;
      }
    </style>
  </defs>
  <path class="cls-1" d="M169.85,60.889a45.344,45.344,0,0,0-63.372,0,44.85,44.85,0,0,0-4.53,5.289,44.812,44.812,0,0,0-67.9-5.289,43.568,43.568,0,0,0,0,62.339l67.9,66.8,67.9-66.8A43.58,43.58,0,0,0,169.85,60.889Zm-9.055,53.439c-3.223,3.169-58.847,57.888-58.847,57.888S46.329,117.5,43.1,114.328a31.136,31.136,0,0,1,0-44.532,32.393,32.393,0,0,1,45.268,0c2.992,2.937,13.58,13.358,13.58,13.358L115.526,69.8a32.394,32.394,0,0,1,45.269,0A31.136,31.136,0,0,1,160.795,114.328ZM135.723,74.591v6.654A13.418,13.418,0,0,1,149.25,94.551a13.139,13.139,0,0,1-3.962,9.408l4.781,4.7a19.737,19.737,0,0,0,5.944-14.111A20.131,20.131,0,0,0,135.723,74.591Z"/>
</svg>
