<svg id="Services" xmlns="http://www.w3.org/2000/svg" width="152" height="187" viewBox="0 0 152 187">
  <defs>
    <style>
      .cls-1 {
        fill: #130e27;
        fill-rule: evenodd;
      }
    </style>
  </defs>
  <path class="cls-1" d="M79,19A58.006,58.006,0,0,0,24.373,96.5l15.96,32.292c1.718,2.838,3.75,5.411,6.507,6.143-0.006.108-.063,0.2-0.063,0.315v6.458a6.447,6.447,0,0,0,6.444,6.458v6.459a6.447,6.447,0,0,0,6.445,6.458v6.458A6.448,6.448,0,0,0,66.111,174H91.889a6.448,6.448,0,0,0,6.444-6.459v-6.458a6.447,6.447,0,0,0,6.445-6.458v-6.459a6.447,6.447,0,0,0,6.444-6.458V135.25a3.4,3.4,0,0,0-.075-0.353c2.82-.808,5.173-3.4,6.52-6.1L133.627,96.5A58.007,58.007,0,0,0,79,19ZM91.889,167.541H66.111v-6.458H91.889v6.458Zm6.444-12.916H59.667v-6.459H98.333v6.459Zm6.445-12.917H53.222V135.25h51.556v6.458ZM119.712,96.5l-12.92,25.833H51.347L38.288,96.5A45.111,45.111,0,1,1,119.712,96.5ZM79,38.375v6.458a32.255,32.255,0,0,1,32.222,32.292h6.445A38.71,38.71,0,0,0,79,38.375Z"/>
</svg>
