<svg id="Services" xmlns="http://www.w3.org/2000/svg" width="188" height="198" viewBox="0 0 188 198">
  <defs>
    <style>
      .cls-1 {
        fill: #130e27;
        fill-rule: evenodd;
      }
    </style>
  </defs>
  <path class="cls-1" d="M94,18a75,75,0,1,0,75,75A75,75,0,0,0,94,18Zm6.25,137.185V149.25a6.25,6.25,0,0,0-12.5,0v5.935A62.51,62.51,0,0,1,31.817,99.25H37.75a6.25,6.25,0,1,0,0-12.5H31.817A62.511,62.511,0,0,1,87.75,30.815V36.75a6.25,6.25,0,0,0,12.5,0V30.815A62.511,62.511,0,0,1,156.183,86.75H150.25a6.25,6.25,0,0,0,0,12.5h5.933A62.509,62.509,0,0,1,100.25,155.185ZM80.743,106.258l8.838,26.513,35.357-70.716L54.23,97.413Zm10,10.222-4.072-12.2-0.982-2.966-2.966-.99L70.514,96.26l40.448-20.227Z"/>
</svg>
